<svg enable-background="new 0 0 512 512" viewBox="0 0 512 512" xmlns="http://www.w3.org/2000/svg"><path d="m282.381 352.599c.067 7.018-4.038 13.436-10.443 16.302-31.417 14.065-74.432 22.747-121.909 22.747s-90.492-8.682-121.909-22.747c-6.406-2.868-10.51-9.284-10.443-16.302 1.27-131.996 25.959-246.668 132.352-246.668s131.081 114.673 132.352 246.668z" fill="#5a4146"/><path d="m283.841 425.761-78.77-32.821c-6.579-2.741-10.865-9.17-10.865-16.298v-21.332h-88.276v21.333c0 7.127-4.286 13.556-10.865 16.298l-78.77 32.821c-9.866 4.111-16.295 13.754-16.295 24.445v35.31c0 9.75 7.905 17.655 17.655 17.655h264.828c9.75 0 17.655-7.905 17.655-17.655v-35.31c0-10.691-6.429-20.334-16.297-24.446z" fill="#e6af78"/><path d="m194.207 355.31h-88.276v21.333c0 7.127-4.286 13.556-10.865 16.298l-12.302 5.127c94.144 24.004 111.443-42.758 111.443-42.758z" fill="#d29b6e"/><path d="m283.841 425.761-58.212-24.255c-38.051 47.802-75.56 57.528-75.56 57.528s-37.508-9.726-75.56-57.528l-58.212 24.255c-9.868 4.112-16.297 13.755-16.297 24.446v35.31c0 9.75 7.905 17.655 17.655 17.655h264.828c9.75 0 17.655-7.905 17.655-17.655v-35.31c0-10.691-6.429-20.334-16.297-24.446z" fill="#c3e678"/><path d="m238.345 238.345-7.137 78.504c-1.058 11.636-7.804 21.996-18.017 27.67l-45.974 25.542c-10.665 5.924-23.631 5.924-34.296 0l-45.973-25.542c-10.214-5.674-16.959-16.034-18.017-27.67l-7.137-78.504s97.103-8.828 141.241-35.31c-.001-.001 8.827 26.482 35.31 35.31z" fill="#f0c087"/><path d="m237.689 298.724c-.439 1.5-11.5 36.724-78.793 36.724v17.655c81.655 0 95.285-47.707 95.828-49.741z" fill="#464655"/><circle cx="158.897" cy="344.276" fill="#5b5d6e" r="8.828"/><path d="m247.172 256h-10.433l-4.815 52.966h15.249c4.875 0 8.828-3.953 8.828-8.828v-35.31c-.001-4.875-3.954-8.828-8.829-8.828z" fill="#707487"/><path d="m63.399 256h-10.433c-4.875 0-8.828 3.953-8.828 8.828v35.31c0 4.875 3.953 8.828 8.828 8.828h15.247z" fill="#707487"/><g fill="#a5d76e"><path d="m43.027 459.911-35.434-28.185c-4.747 4.856-7.593 11.42-7.593 18.481v35.31c0 9.75 7.905 17.655 17.655 17.655h35.31v-22.582c.001-8.045-3.656-15.653-9.938-20.679z"/><path d="m300.138 485.517v-35.31c0-7.006-2.798-13.526-7.479-18.37l-35.548 28.074c-6.282 5.026-9.939 12.634-9.939 20.68v22.582h35.31c9.751-.001 17.656-7.906 17.656-17.656z"/><path d="m225.629 401.506c-38.051 47.802-75.56 57.528-75.56 57.528s-37.508-9.726-75.56-57.528l-12.729 5.304c41.523 53.035 83.147 64.562 84.9 65.026l3.388.897 3.388-.897c1.753-.465 43.379-11.99 84.9-65.026z"/></g><path d="m203.034 203.034c-44.138 26.483-141.241 35.31-141.241 35.31l1.599 17.582 5.538 60.92c1.058 11.637 7.804 21.996 18.018 27.671l45.973 25.54c4.376 2.432 9.145 3.809 13.978 4.245l-13.801-23.003c-6.259-10.431-10.038-22.158-11.048-34.281l-5.053-60.63c-.375-4.504 2.688-8.525 7.125-9.388 23.666-4.604 50.141-11.23 71.539-20.499 7.167 10.375 18.956 22.542 37.1 28.589l1.878.626 1.97.194.137.013 1.598-17.581c-26.482-8.825-35.31-35.308-35.31-35.308z" fill="#e6af78"/><path d="m485.517 8.828h-176.551c-14.626 0-26.483 11.857-26.483 26.483v97.103c0 14.626 11.857 26.483 26.483 26.483v29.219c0 5.505 6.656 8.263 10.549 4.37l33.589-33.589h132.414c14.626 0 26.483-11.857 26.483-26.483v-97.104c-.001-14.626-11.858-26.482-26.484-26.482z" fill="#c3e678"/><path d="m339.862 44.138c-17.035 0-30.897 13.863-30.897 30.897v17.655c0 17.035 13.863 30.897 30.897 30.897 5.302 0 10.22-1.466 14.584-3.829l1.242 1.242c1.725 1.725 3.982 2.586 6.241 2.586s4.518-.862 6.241-2.586c3.448-3.448 3.448-9.035 0-12.483l-1.242-1.242c2.364-4.364 3.83-9.282 3.83-14.584v-17.657c.001-17.033-13.861-30.896-30.896-30.896zm10.655 46.724c-3.448-3.448-9.035-3.448-12.483 0s-3.448 9.035 0 12.483l2.517 2.517c-.232.011-.452.068-.689.068-7.302 0-13.241-5.94-13.241-13.241v-17.655c0-7.302 5.94-13.241 13.241-13.241 7.302 0 13.241 5.94 13.241 13.241v17.656c0 .236-.057.457-.07.69z" fill="#fff"/><path d="m417.689 35.763c-4.655-1.551-9.63.966-11.164 5.582l-26.483 79.448c-1.543 4.625.957 9.625 5.578 11.168.931.31 1.87.457 2.793.457 3.699 0 7.138-2.34 8.371-6.039l26.483-79.448c1.543-4.625-.956-9.625-5.578-11.168z" fill="#fff"/><path d="m485.181 112.332-17.655-61.793c-1.086-3.789-4.552-6.401-8.491-6.401h-8.828c-3.939 0-7.405 2.612-8.491 6.401l-17.655 61.793c-1.336 4.69 1.379 9.574 6.069 10.914 4.647 1.323 9.569-1.366 10.914-6.06l3.213-11.255h20.726l3.214 11.254c1.112 3.875 4.647 6.406 8.483 6.406.81 0 1.621-.113 2.431-.345 4.69-1.34 7.406-6.224 6.07-10.914zm-35.88-24.056 5.32-18.625 5.32 18.625z" fill="#fff"/></svg>